<?xml version="1.0" standalone="no"?>
<svg viewBox="0 0 200 200" xmlns="http://www.w3.org/2000/svg">
  <path fill="#CCD5AE" d="M44.4,-76.9C58.3,-68.8,71.1,-58.6,78.6,-45.4C86.1,-32.3,88.3,-16.1,88.7,0.3C89.2,16.7,87.9,33.3,80.5,46.7C73.2,60.2,59.9,70.4,45.5,77.8C31,85.2,15.5,89.8,-0.6,90.8C-16.6,91.8,-33.3,89.1,-46.4,81C-59.6,72.8,-69.2,59.2,-75.7,44.8C-82.1,30.4,-85.4,15.2,-86.4,-0.6C-87.5,-16.4,-86.3,-32.8,-79.6,-46.8C-72.9,-60.7,-60.7,-72.3,-46.5,-80.3C-32.3,-88.3,-16.1,-92.8,-0.5,-91.9C15.2,-91.1,30.4,-85,44.4,-76.9Z" transform="translate(100 100)" />
</svg>
