<?xml version="1.0" standalone="no"?>
<svg viewBox="0 0 200 200" xmlns="http://www.w3.org/2000/svg">
  <path fill="#F9E1E1" d="M40.2,-69.4C54.6,-61.2,70.6,-55.6,80.6,-44.5C90.5,-33.3,94.5,-16.7,92.7,-1.1C90.8,14.5,83,29,73.3,40.6C63.6,52.3,52,61.1,39.5,67.8C26.9,74.4,13.5,79,0.1,78.8C-13.3,78.7,-26.6,73.9,-37.8,66.5C-49,59,-58,48.9,-65.8,37.3C-73.6,25.8,-80.1,12.9,-81.6,-0.8C-83,-14.6,-79.4,-29.2,-72.2,-41.7C-65,-54.3,-54.3,-64.9,-41.7,-74.1C-29.1,-83.4,-14.5,-91.2,-0.8,-89.8C12.9,-88.4,25.7,-77.6,40.2,-69.4Z" transform="translate(100 100)" />
</svg>
