<?xml version="1.0" standalone="no"?>
<svg viewBox="0 0 200 200" xmlns="http://www.w3.org/2000/svg">
  <path fill="#CCD5AE" d="M41.2,-60.6C49.3,-50.8,48.9,-33.3,51.3,-18.4C53.7,-3.6,58.9,8.6,59.6,23.4C60.3,38.2,56.7,55.6,46,66.2C35.3,76.8,17.7,80.7,-0.7,81.7C-19.2,82.8,-38.3,80.9,-52.5,71.5C-66.7,62,-75.9,44.8,-78.2,27.8C-80.4,10.7,-75.8,-6.2,-68.8,-20.7C-61.8,-35.2,-52.5,-47.3,-40.6,-55.9C-28.8,-64.5,-14.4,-69.6,1.1,-71.1C16.5,-72.5,33.1,-70.4,41.2,-60.6Z" transform="translate(100 100)" />
</svg>
